<?xml version="1.0" encoding="UTF-8"?>
<svg width="1280" height="640" version="1.1" viewBox="0 0 338.67 169.33" xmlns="http://www.w3.org/2000/svg" xmlns:xlink="http://www.w3.org/1999/xlink"><defs><linearGradient id="a" x2="338.67" y1="84.667" y2="84.667" gradientUnits="userSpaceOnUse"><stop stop-color="#8003fc" offset="0"/><stop stop-color="#0176cc" offset="1"/></linearGradient></defs><rect x="-1.7764e-15" y="-1.7764e-15" width="338.67" height="169.33" fill="url(#a)" stroke-linecap="round" stroke-linejoin="bevel" stroke-width=".72596"/><rect x="38.05" y="19.025" width="262.57" height="131.28" d="M 53.049644,19.024822 H 285.61703 a 15,15 45 0 1 15,15 l 0,101.283688 a 15,15 135 0 1 -15,15 l -232.567386,0 a 15,15 45 0 1 -15,-15 l 0,-101.283688 a 15,15 135 0 1 15,-15 z" fill="#1d1d1d" stroke-linecap="round" stroke-linejoin="bevel" stroke-width=".3958"/><image x="37.563" y="36.464" width="96.406" height="96.406" image-rendering="optimizeQuality" preserveAspectRatio="none" xlink:href="logo.svg"/><image x="142.31" y="66.422" width="135.21" height="36.49" image-rendering="optimizeQuality" preserveAspectRatio="none" xlink:href="text.svg"/></svg>
