<?xml version="1.0" encoding="UTF-8"?>
<svg width="256" height="256" version="1.1" viewBox="0 0 256 256" xmlns="http://www.w3.org/2000/svg" xmlns:xlink="http://www.w3.org/1999/xlink"><defs><linearGradient id="3"><stop stop-color="#f7f7f7" offset="0"/></linearGradient><linearGradient id="2"><stop stop-color="#ebebeb" offset="0"/></linearGradient><linearGradient id="1"><stop stop-color="#dedede" offset="0"/></linearGradient><linearGradient id="0"><stop stop-color="#d9d9d9" offset="0"/></linearGradient><linearGradient id="v" x1="163.58" x2="183.35" y1="408.6" y2="408.6" gradientUnits="userSpaceOnUse" xlink:href="#0"/><linearGradient id="u" x1="328.65" x2="348.42" y1="408.6" y2="408.6" gradientUnits="userSpaceOnUse" xlink:href="#0"/><linearGradient id="t" x1="169.6" x2="188.83" y1="247.72" y2="247.72" gradientUnits="userSpaceOnUse" xlink:href="#0"/><linearGradient id="s" x1="323.17" x2="342.4" y1="247.72" y2="247.72" gradientUnits="userSpaceOnUse" xlink:href="#0"/><linearGradient id="r" x1="153.23" x2="172.31" y1="425.23" y2="425.23" gradientUnits="userSpaceOnUse" xlink:href="#0"/><linearGradient id="q" x1="339.59" x2="358.67" y1="425.33" y2="425.33" gradientUnits="userSpaceOnUse" xlink:href="#0"/><linearGradient id="p" x1="182.56" x2="207.91" y1="408.6" y2="408.6" gradientUnits="userSpaceOnUse" xlink:href="#1"/><linearGradient id="o" x1="304.09" x2="329.44" y1="408.6" y2="408.6" gradientUnits="userSpaceOnUse" xlink:href="#1"/><linearGradient id="n" x1="187.67" x2="211.61" y1="247.72" y2="247.72" gradientUnits="userSpaceOnUse" xlink:href="#1"/><linearGradient id="m" x1="300.39" x2="324.33" y1="247.72" y2="247.72" gradientUnits="userSpaceOnUse" xlink:href="#1"/><linearGradient id="l" x1="171.09" x2="200.73" y1="425.15" y2="425.15" gradientUnits="userSpaceOnUse" xlink:href="#1"/><linearGradient id="k" x1="311.27" x2="340.91" y1="425.15" y2="425.15" gradientUnits="userSpaceOnUse" xlink:href="#1"/><linearGradient id="j" x1="207.12" x2="237.65" y1="408.6" y2="408.6" gradientUnits="userSpaceOnUse" xlink:href="#2"/><linearGradient id="i" x1="274.35" x2="304.88" y1="408.6" y2="408.6" gradientUnits="userSpaceOnUse" xlink:href="#2"/><linearGradient id="h" x1="210.45" x2="239.19" y1="247.72" y2="247.72" gradientUnits="userSpaceOnUse" xlink:href="#2"/><linearGradient id="g" x1="272.81" x2="301.55" y1="247.72" y2="247.72" gradientUnits="userSpaceOnUse" xlink:href="#2"/><linearGradient id="f" x1="199.42" x2="235.04" y1="425.15" y2="425.15" gradientUnits="userSpaceOnUse" xlink:href="#2"/><linearGradient id="e" x1="276.96" x2="312.58" y1="425.15" y2="425.15" gradientUnits="userSpaceOnUse" xlink:href="#2"/><linearGradient id="d" x1="236.86" x2="275.14" y1="408.6" y2="408.6" gradientUnits="userSpaceOnUse" xlink:href="#3"/><linearGradient id="c" x1="238.03" x2="273.97" y1="247.72" y2="247.72" gradientUnits="userSpaceOnUse" xlink:href="#3"/><linearGradient id="b" x1="233.72" x2="278.28" y1="425.15" y2="425.15" gradientUnits="userSpaceOnUse" xlink:href="#3"/><linearGradient id="a" x1="127.93" x2="384.07" y1="85.982" y2="85.982" gradientUnits="userSpaceOnUse" xlink:href="#3"/></defs><g stroke="#000"><g fill="#fff"><g transform="matrix(.6097 0 0 .64252 -28.052 -28.144)" style="mix-blend-mode:normal"><path d="m340.25 408.72-0.10112 32.979h17.861l0.10111-17.791s-8.4614-0.70022-17.861-15.188z" fill="url(#q)" stroke-linecap="round" stroke-linejoin="bevel" stroke-width="1.1131px"/><g stroke-linejoin="round" stroke-width="1.3154"><rect x="311.92" y="408.72" width="28.328" height="32.878" fill="url(#k)"/><rect x="277.62" y="408.72" width="34.301" height="32.878" fill="url(#e)"/><rect x="234.38" y="408.72" width="43.244" height="32.878" fill="url(#b)"/><rect x="200.08" y="408.72" width="34.301" height="32.878" fill="url(#f)"/><rect x="171.75" y="408.72" width="28.328" height="32.878" fill="url(#l)"/></g><path d="m171.65 408.61 0.10112 32.979h-17.861l-0.10111-17.791s8.4614-0.70022 17.861-15.188z" fill="url(#r)" stroke-linecap="round" stroke-linejoin="bevel" stroke-width="1.1131px"/></g><g transform="matrix(.6097 0 0 .64252 -28.083 -28.144)" stroke-linejoin="round" stroke-width="1.1601" style="mix-blend-mode:normal"><rect x="323.75" y="89.869" width="18.075" height="315.7" fill="url(#s)"/><rect x="300.97" y="89.869" width="22.779" height="315.7" fill="url(#m)"/><rect x="273.39" y="89.869" width="27.582" height="315.7" fill="url(#g)"/><rect x="238.61" y="89.869" width="34.773" height="315.7" fill="url(#c)"/><rect x="211.03" y="89.869" width="27.582" height="315.7" fill="url(#h)"/><rect x="188.25" y="89.869" width="22.779" height="315.7" fill="url(#n)"/><rect x="170.18" y="89.869" width="18.075" height="315.7" fill="url(#t)"/></g><g transform="matrix(.6097 0 0 .64252 -28.083 -28.144)" style="mix-blend-mode:normal"><path d="m343.93 403.18h-14.883v10.842h14.613s9.6596-5.421 0.27009-10.842z" fill="url(#u)" stroke-width=".78968px"/><g stroke-linejoin="round" stroke-width=".78968"><path d="m304.48 403.18h24.56v10.842h-24.56z" fill="url(#o)"/><path d="m274.75 403.18h29.738v10.842h-29.738z" fill="url(#i)"/><path d="m237.25 403.18h37.492v10.842h-37.492z" fill="url(#d)"/><path d="m207.52 403.18h29.738v10.842h-29.738z" fill="url(#j)"/><path d="m182.96 403.18h24.56v10.842h-24.56z" fill="url(#p)"/></g><path d="m168.07 403.18h14.883v10.842h-14.613s-9.6596-5.421-0.27009-10.842z" fill="url(#v)" stroke-width=".78968px"/></g></g><g transform="matrix(.64246 0 0 .64246 -36.471 -28.13)" fill="url(#a)" style="mix-blend-mode:normal"><path d="m170.1 44.411c85.902 19.517 171.8 0 171.8 0l-4e-5 45.378h-171.8z" stroke-width="1px"/><path transform="translate(11.709 -49.032)" d="m158.39 138.82c-1e-5 -2.2752 3.0669-1.1225 3.7815 0 1.9365 3.0419-0.85167 6.6304-3.7815 7.563-5.2407 1.6682-10.284-2.5657-11.344-7.5629-1.5563-7.3337 4.2874-14.003 11.344-15.126 9.4059-1.497 17.747 6.0098 18.907 15.126 1.4606 11.472-7.732 21.503-18.907 22.689-13.535 1.4361-25.267-9.454-26.47-22.689-1.4185-15.597 11.176-29.035 26.47-30.252 17.658-1.4052 32.806 12.898 34.033 30.252 1.3948 19.719-14.619 36.579-34.033 37.815-21.78 1.3865-40.353-16.341-41.596-37.815-1.3797-23.84 18.063-44.129 41.596-45.378"/><path transform="matrix(-1 0 0 1 500.29 -49.032)" d="m158.39 138.82c-1e-5 -2.2752 3.0669-1.1225 3.7815 0 1.9365 3.0419-0.85167 6.6304-3.7815 7.563-5.2407 1.6682-10.284-2.5657-11.344-7.5629-1.5563-7.3337 4.2874-14.003 11.344-15.126 9.4059-1.497 17.747 6.0098 18.907 15.126 1.4606 11.472-7.732 21.503-18.907 22.689-13.535 1.4361-25.267-9.454-26.47-22.689-1.4185-15.597 11.176-29.035 26.47-30.252 17.658-1.4052 32.806 12.898 34.033 30.252 1.3948 19.719-14.619 36.579-34.033 37.815-21.78 1.3865-40.353-16.341-41.596-37.815-1.3797-23.84 18.063-44.129 41.596-45.378"/></g></g></svg>
