<?xml version="1.0" encoding="UTF-8"?>
<svg width="512" height="512" version="1.1" viewBox="0 0 512 512" xmlns="http://www.w3.org/2000/svg"><g><g transform="matrix(1.2341 0 0 1.2341 -59.939 -43.917)" stroke="#000"><path d="m340.25 408.72-0.10112 32.979h17.861l0.10111-17.791s-8.4614-0.70022-17.861-15.188z" fill="#ccc" stroke-linecap="round" stroke-linejoin="bevel" stroke-width="1.1131px"/><g stroke-linejoin="round"><rect x="234.38" y="408.72" width="43.244" height="32.878" fill="#fff" stroke-width="1.3154"/><rect x="277.62" y="408.72" width="34.301" height="32.878" fill="#f2f2f2" stroke-width="1.3154"/><rect x="200.01" y="408.61" width="34.342" height="23.517" fill="#e6e6e6" stroke-width="1.1131"/><g stroke-width="1.3154"><rect x="200.08" y="408.72" width="34.301" height="32.878" fill="#f2f2f2"/><rect x="171.75" y="408.72" width="28.328" height="32.878" fill="#e6e6e6"/><rect x="311.92" y="408.72" width="28.328" height="32.878" fill="#e6e6e6"/></g></g><path d="m171.65 408.61 0.10112 32.979h-17.861l-0.10111-17.791s8.4614-0.70022 17.861-15.188z" fill="#ccc" stroke-linecap="round" stroke-linejoin="bevel" stroke-width="1.1131px"/><g stroke-linejoin="round" stroke-width="1.1601"><rect x="238.61" y="89.869" width="34.773" height="315.7" fill="#fff"/><rect x="273.39" y="89.869" width="27.582" height="315.7" fill="#f2f2f2"/><rect x="211.03" y="89.869" width="27.582" height="315.7" fill="#e6e6e6"/><rect x="211.03" y="89.869" width="27.582" height="315.7" fill="#f2f2f2"/><rect x="188.25" y="89.869" width="22.779" height="315.7" fill="#e6e6e6"/><rect x="300.97" y="89.869" width="22.779" height="315.7" fill="#e6e6e6"/><rect x="323.75" y="89.869" width="18.075" height="315.7" fill="#ccc"/><rect x="170.18" y="89.869" width="18.075" height="315.7" fill="#ccc"/></g><path d="m170.1 44.411c85.902 19.517 171.8 0 171.8 0l-4e-5 45.378h-171.8z" fill="#f2f2f2" stroke-width="1px"/><path transform="translate(11.709 -49.032)" d="m158.39 138.82c-1e-5 -2.2752 3.0669-1.1225 3.7815 0 1.9365 3.0419-0.85167 6.6304-3.7815 7.563-5.2407 1.6682-10.284-2.5657-11.344-7.5629-1.5563-7.3337 4.2874-14.003 11.344-15.126 9.4059-1.497 17.747 6.0098 18.907 15.126 1.4606 11.472-7.732 21.503-18.907 22.689-13.535 1.4361-25.267-9.454-26.47-22.689-1.4185-15.597 11.176-29.035 26.47-30.252 17.658-1.4052 32.806 12.898 34.033 30.252 1.3948 19.719-14.619 36.579-34.033 37.815-21.78 1.3865-40.353-16.341-41.596-37.815-1.3797-23.84 18.063-44.129 41.596-45.378" fill="#e6e6e6"/><path transform="matrix(-1 0 0 1 500.29 -49.032)" d="m158.39 138.82c-1e-5 -2.2752 3.0669-1.1225 3.7815 0 1.9365 3.0419-0.85167 6.6304-3.7815 7.563-5.2407 1.6682-10.284-2.5657-11.344-7.5629-1.5563-7.3337 4.2874-14.003 11.344-15.126 9.4059-1.497 17.747 6.0098 18.907 15.126 1.4606 11.472-7.732 21.503-18.907 22.689-13.535 1.4361-25.267-9.454-26.47-22.689-1.4185-15.597 11.176-29.035 26.47-30.252 17.658-1.4052 32.806 12.898 34.033 30.252 1.3948 19.719-14.619 36.579-34.033 37.815-21.78 1.3865-40.353-16.341-41.596-37.815-1.3797-23.84 18.063-44.129 41.596-45.378" fill="#e6e6e6"/><g><g stroke-linejoin="round" stroke-width=".78968"><path d="m237.25 403.18h37.492v10.842h-37.492z" fill="#fff"/><path d="m274.75 403.18h29.738v10.842h-29.738z" fill="#f2f2f2"/><path d="m207.52 403.18h29.738v10.842h-29.738z" fill="#e6e6e6"/><path d="m207.52 403.18h29.738v10.842h-29.738z" fill="#f2f2f2"/><path d="m182.96 403.18h24.56v10.842h-24.56z" fill="#e6e6e6"/><path d="m304.48 403.18h24.56v10.842h-24.56z" fill="#e6e6e6"/></g><path d="m168.07 403.18h14.883v10.842h-14.613s-9.6596-5.421-0.27009-10.842z" fill="#ccc" stroke-width=".78968px"/><path d="m343.93 403.18h-14.883v10.842h14.613s9.6596-5.421 0.27009-10.842z" fill="#ccc" stroke-width=".78968px"/></g></g></g></svg>
